<?xml version="1.0" standalone="no"?>
<!DOCTYPE svg PUBLIC "-//W3C//DTD SVG 20010904//EN"
 "http://www.w3.org/TR/2001/REC-SVG-20010904/DTD/svg10.dtd">
<svg version="1.0" xmlns="http://www.w3.org/2000/svg"
 width="700.000000pt" height="700.000000pt" viewBox="0 0 700.000000 700.000000"
 preserveAspectRatio="xMidYMid meet">
<metadata>
Created by potrace 1.14, written by Peter Selinger 2001-2017
</metadata>
<g transform="translate(0.000000,700.000000) scale(0.100000,-0.100000)"
fill="#000000" stroke="none">
<path d="M3145 6865 c-338 -53 -616 -196 -866 -445 -224 -224 -359 -469 -431
-788 -21 -95 -22 -117 -25 -899 l-4 -803 -317 0 c-174 0 -348 -5 -387 -10
-503 -72 -895 -447 -980 -938 -23 -128 -22 -1789 0 -1918 77 -438 403 -791
841 -912 l99 -27 909 -3 c989 -3 991 -3 1161 54 385 129 663 440 761 852 13
53 17 144 21 430 l5 362 741 0 c579 0 765 3 847 14 657 88 1172 557 1327 1211
l28 120 0 1180 c0 1315 4 1235 -70 1461 -180 550 -651 957 -1220 1054 -113 19
-159 20 -1238 19 -847 -1 -1142 -4 -1202 -14z m2395 -408 c302 -67 552 -229
723 -469 55 -77 127 -220 156 -308 56 -171 54 -135 58 -1225 5 -1078 1 -1203
-41 -1367 -93 -365 -383 -677 -741 -797 -180 -60 -194 -61 -1015 -61 l-748 0
-5 363 c-5 381 -8 412 -58 558 -25 72 -88 203 -127 261 l-26 39 630 630 629
629 3 -62 c1 -35 -6 -259 -16 -498 -13 -300 -16 -447 -9 -474 6 -21 26 -55 46
-76 86 -90 236 -69 292 42 20 39 23 78 52 797 17 419 27 774 23 796 -11 54
-77 121 -131 131 -22 4 -377 -6 -796 -23 -719 -29 -757 -32 -797 -52 -75 -38
-114 -127 -93 -208 15 -53 44 -89 94 -115 50 -25 54 -25 597 -2 206 8 396 14
423 12 l47 -3 -629 -629 -629 -629 -49 31 c-80 52 -233 119 -318 141 -136 35
-209 41 -537 41 l-318 0 0 754 c0 822 1 837 58 1006 146 428 537 739 981 780
47 4 561 7 1141 6 940 -2 1063 -5 1130 -19z"/>
</g>
</svg>
