<svg xmlns="http://www.w3.org/2000/svg" xml:space="preserve" fill-rule="evenodd" stroke-linejoin="round" stroke-miterlimit="2" clip-rule="evenodd" viewBox="0 0 60 60">
  <path fill="#9775fa" d="M4.489 36.129a6.328 6.328 0 0 1 6.322-6.322h13.061a6.328 6.328 0 0 1 6.322 6.322v13.062a6.328 6.328 0 0 1-6.322 6.322H10.811a6.328 6.328 0 0 1-6.322-6.322V36.129Z"/>
  <path fill="#63e6be" d="M19.079 14.372c0-5.45 4.434-9.885 9.884-9.885h16.664c5.45 0 9.884 4.435 9.884 9.885v16.652c0 5.45-4.434 9.885-9.884 9.885H33.683v-4.78a9.75 9.75 0 0 0-1.86-5.726l10.915-10.914-.351 8.499a1.578 1.578 0 0 0 1.511 1.64l.065.001c.841 0 1.539-.665 1.574-1.512l.517-12.532c.001-.016-.003-.031-.003-.047l-.003-.054a1.59 1.59 0 0 0-.107-.549l-.013-.024a1.558 1.558 0 0 0-.335-.505 1.561 1.561 0 0 0-1.146-.455c-.012-.001-.021-.006-.033-.006l-12.533.516c-.87.037-1.546.77-1.511 1.64.037.869.761 1.516 1.64 1.511l8.499-.351-10.915 10.915a9.743 9.743 0 0 0-5.722-1.858h-4.793V14.372Z"/>
  <path fill="#343a40" fill-rule="nonzero" d="M10.811 59.001h13.061c5.41 0 9.811-4.4 9.811-9.81v-4.794h11.944C53.001 44.397 59 38.398 59 31.024V14.372C59 6.998 53.001.999 45.627.999H28.963C21.59.999 15.59 6.998 15.59 14.372v11.946h-4.779C5.4 26.318 1 30.719 1 36.129v13.062c0 5.41 4.4 9.81 9.811 9.81Zm8.268-44.629c0-5.45 4.434-9.885 9.884-9.885h16.664c5.45 0 9.884 4.435 9.884 9.885v16.652c0 5.45-4.434 9.885-9.884 9.885H33.683v-4.78a9.75 9.75 0 0 0-1.86-5.726l10.915-10.914-.351 8.499a1.578 1.578 0 0 0 1.511 1.64l.065.001c.841 0 1.539-.665 1.574-1.512l.517-12.532c.001-.016-.003-.031-.003-.047l-.003-.054a1.59 1.59 0 0 0-.107-.549l-.013-.024a1.558 1.558 0 0 0-.335-.505 1.561 1.561 0 0 0-1.146-.455c-.012-.001-.021-.006-.033-.006l-12.533.516c-.87.037-1.546.77-1.511 1.64.037.869.761 1.516 1.64 1.511l8.499-.351-10.915 10.915a9.743 9.743 0 0 0-5.722-1.858h-4.793V14.372ZM4.489 36.129a6.328 6.328 0 0 1 6.322-6.322h13.061a6.328 6.328 0 0 1 6.322 6.322v13.062a6.328 6.328 0 0 1-6.322 6.322H10.811a6.328 6.328 0 0 1-6.322-6.322V36.129Z"/>
</svg>
